<mxfile host="65bd71144e">
    <diagram id="Jx681PXJkfwk6c4w5hEH" name="Page-1">
        <mxGraphModel dx="1061" dy="767" grid="1" gridSize="10" guides="1" tooltips="1" connect="1" arrows="1" fold="1" page="1" pageScale="1" pageWidth="850" pageHeight="1100" math="0" shadow="0">
            <root>
                <mxCell id="0"/>
                <mxCell id="1" parent="0"/>
                <mxCell id="2" value="SInif -&amp;gt; Ders -&amp;gt; Konlar&amp;nbsp;" style="rounded=1;whiteSpace=wrap;html=1;" vertex="1" parent="1">
                    <mxGeometry x="110" y="40" width="290" height="60" as="geometry"/>
                </mxCell>
                <mxCell id="3" value="Sinif Listesi&lt;br&gt;Ders Listesi&lt;br&gt;Konunlar listesi" style="rounded=1;whiteSpace=wrap;html=1;" vertex="1" parent="1">
                    <mxGeometry x="230" y="150" width="200" height="120" as="geometry"/>
                </mxCell>
                <mxCell id="4" value="Sinif secimi&lt;br&gt;Ders Secimi&lt;br&gt;Konu secimi" style="rounded=1;whiteSpace=wrap;html=1;" vertex="1" parent="1">
                    <mxGeometry x="60" y="150" width="170" height="120" as="geometry"/>
                </mxCell>
            </root>
        </mxGraphModel>
    </diagram>
</mxfile>